<svg width="29" height="28" viewBox="0 0 29 28" fill="none" xmlns="http://www.w3.org/2000/svg">
    <mask id="path-1-outside-1_33_349" maskUnits="userSpaceOnUse" x="0" y="0" width="29" height="28"
        fill="black">
        <rect fill="white" width="29" height="28" />
        <path
            d="M25.7701 5.56981C25.7501 5.5102 25.7156 5.45645 25.6698 5.41332C25.624 5.37019 25.5682 5.33901 25.5075 5.32255C25.4476 5.30789 25.3849 5.30917 25.3256 5.32626C25.2664 5.34335 25.2126 5.37566 25.1698 5.41996L22.2658 8.32712L20.6224 7.39803L19.6844 5.74964L22.5959 2.84997C22.6403 2.80562 22.6726 2.75065 22.6897 2.69032C22.7067 2.62999 22.7081 2.56629 22.6935 2.50531C22.6776 2.44433 22.6466 2.38833 22.6033 2.34249C22.5601 2.29666 22.5059 2.26246 22.4459 2.24306C21.543 1.95506 20.5779 1.92232 19.6575 2.14846C18.7371 2.3746 17.8974 2.85079 17.2315 3.52426C16.5656 4.19772 16.0994 5.04216 15.8847 5.96396C15.67 6.88576 15.7151 7.84893 16.015 8.74671L7.12283 17.6105C6.43103 17.4681 5.71466 17.4989 5.0377 17.7002C4.36074 17.9016 3.74425 18.2672 3.24329 18.7644C2.44723 19.5593 2 20.6374 2 21.7615C2 22.8856 2.44723 23.9637 3.24329 24.7586C4.03936 25.5534 5.11906 26 6.24487 26C7.37068 26 8.45038 25.5534 9.24644 24.7586C9.74423 24.2584 10.1097 23.6426 10.3101 22.9664C10.5105 22.2902 10.5396 21.575 10.3945 20.8849L19.2642 11.991C20.1622 12.2879 21.125 12.3307 22.0459 12.1149C22.9669 11.8991 23.81 11.433 24.482 10.7682C25.154 10.1034 25.6286 9.26591 25.8533 8.34841C26.078 7.43091 26.044 6.46921 25.7551 5.56981H25.7701ZM8.10584 21.5367L7.68562 22.9828C7.67057 23.0384 7.64116 23.0892 7.60035 23.1299C7.55953 23.1707 7.50873 23.2 7.453 23.2151L6.03476 23.6347H5.93721C5.89206 23.6349 5.84736 23.6257 5.806 23.6077C5.76463 23.5896 5.72753 23.5631 5.69708 23.5298L4.46643 22.301C4.42264 22.258 4.39171 22.2037 4.37713 22.1441C4.36254 22.0845 4.36489 22.0221 4.38389 21.9638L4.79661 20.5402C4.81459 20.4869 4.84509 20.4387 4.88557 20.3996C4.92604 20.3605 4.9753 20.3316 5.02923 20.3154L6.44747 19.8883C6.50792 19.8728 6.57133 19.873 6.63172 19.8887C6.6921 19.9044 6.74749 19.9352 6.79266 19.9782L8.00829 21.1995C8.05399 21.2414 8.08726 21.295 8.10447 21.3545C8.12167 21.4139 8.12215 21.477 8.10584 21.5367Z" />
    </mask>
    <path
        d="M25.7701 5.56981C25.7501 5.5102 25.7156 5.45645 25.6698 5.41332C25.624 5.37019 25.5682 5.33901 25.5075 5.32255C25.4476 5.30789 25.3849 5.30917 25.3256 5.32626C25.2664 5.34335 25.2126 5.37566 25.1698 5.41996L22.2658 8.32712L20.6224 7.39803L19.6844 5.74964L22.5959 2.84997C22.6403 2.80562 22.6726 2.75065 22.6897 2.69032C22.7067 2.62999 22.7081 2.56629 22.6935 2.50531C22.6776 2.44433 22.6466 2.38833 22.6033 2.34249C22.5601 2.29666 22.5059 2.26246 22.4459 2.24306C21.543 1.95506 20.5779 1.92232 19.6575 2.14846C18.7371 2.3746 17.8974 2.85079 17.2315 3.52426C16.5656 4.19772 16.0994 5.04216 15.8847 5.96396C15.67 6.88576 15.7151 7.84893 16.015 8.74671L7.12283 17.6105C6.43103 17.4681 5.71466 17.4989 5.0377 17.7002C4.36074 17.9016 3.74425 18.2672 3.24329 18.7644C2.44723 19.5593 2 20.6374 2 21.7615C2 22.8856 2.44723 23.9637 3.24329 24.7586C4.03936 25.5534 5.11906 26 6.24487 26C7.37068 26 8.45038 25.5534 9.24644 24.7586C9.74423 24.2584 10.1097 23.6426 10.3101 22.9664C10.5105 22.2902 10.5396 21.575 10.3945 20.8849L19.2642 11.991C20.1622 12.2879 21.125 12.3307 22.0459 12.1149C22.9669 11.8991 23.81 11.433 24.482 10.7682C25.154 10.1034 25.6286 9.26591 25.8533 8.34841C26.078 7.43091 26.044 6.46921 25.7551 5.56981H25.7701ZM8.10584 21.5367L7.68562 22.9828C7.67057 23.0384 7.64116 23.0892 7.60035 23.1299C7.55953 23.1707 7.50873 23.2 7.453 23.2151L6.03476 23.6347H5.93721C5.89206 23.6349 5.84736 23.6257 5.806 23.6077C5.76463 23.5896 5.72753 23.5631 5.69708 23.5298L4.46643 22.301C4.42264 22.258 4.39171 22.2037 4.37713 22.1441C4.36254 22.0845 4.36489 22.0221 4.38389 21.9638L4.79661 20.5402C4.81459 20.4869 4.84509 20.4387 4.88557 20.3996C4.92604 20.3605 4.9753 20.3316 5.02923 20.3154L6.44747 19.8883C6.50792 19.8728 6.57133 19.873 6.63172 19.8887C6.6921 19.9044 6.74749 19.9352 6.79266 19.9782L8.00829 21.1995C8.05399 21.2414 8.08726 21.295 8.10447 21.3545C8.12167 21.4139 8.12215 21.477 8.10584 21.5367Z"
        fill="#2F80ED" />
    <path
        d="M25.7701 5.56981V7.56981H28.552L27.666 4.93282L25.7701 5.56981ZM25.5075 5.32255L26.0303 3.39211L26.0067 3.38572L25.983 3.3799L25.5075 5.32255ZM25.1698 5.41996L26.5848 6.83341L26.5962 6.82196L26.6075 6.81033L25.1698 5.41996ZM22.2658 8.32712L21.2815 10.0681L22.6057 10.8168L23.6808 9.74057L22.2658 8.32712ZM20.6224 7.39803L18.8841 8.38717L19.1573 8.86722L19.6381 9.13904L20.6224 7.39803ZM19.6844 5.74964L18.2731 4.33254L17.1905 5.41077L17.9461 6.73878L19.6844 5.74964ZM22.5959 2.84997L24.0073 4.26707L24.0097 4.26463L22.5959 2.84997ZM22.6935 2.50531L24.6388 2.04069L24.6341 2.02117L24.6291 2.00174L22.6935 2.50531ZM22.4459 2.24306L23.0608 0.339925L23.0537 0.33765L22.4459 2.24306ZM16.015 8.74671L17.427 10.1632L18.3046 9.28833L17.9119 8.11299L16.015 8.74671ZM7.12283 17.6105L6.71938 19.5694L7.77295 19.7864L8.53478 19.027L7.12283 17.6105ZM3.24329 18.7644L1.83435 17.3449L1.83014 17.3491L3.24329 18.7644ZM2 21.7615H0H2ZM9.24644 24.7586L10.6596 26.1739L10.664 26.1694L9.24644 24.7586ZM10.3945 20.8849L8.97841 19.4726L8.21498 20.2381L8.43728 21.2961L10.3945 20.8849ZM19.2642 11.991L19.8919 10.0921L18.7198 9.70467L17.8481 10.5788L19.2642 11.991ZM25.7551 5.56981V3.56981H23.012L23.8509 6.18148L25.7551 5.56981ZM8.10584 21.5367L10.0264 22.0948L10.0309 22.0792L10.0352 22.0635L8.10584 21.5367ZM7.68562 22.9828L5.76507 22.4247L5.7599 22.4425L5.75506 22.4604L7.68562 22.9828ZM7.453 23.2151L6.93206 21.2841L6.90875 21.2904L6.88561 21.2972L7.453 23.2151ZM6.03476 23.6347V25.6347H6.3244L6.60215 25.5525L6.03476 23.6347ZM5.93721 23.6347V21.6346L5.92558 21.6347L5.93721 23.6347ZM5.69708 23.5298L7.1728 22.1799L7.14226 22.1465L7.11023 22.1145L5.69708 23.5298ZM4.46643 22.301L5.87959 20.8857L5.87341 20.8795L5.86718 20.8734L4.46643 22.301ZM4.38389 21.9638L6.28543 22.5836L6.29563 22.5523L6.3048 22.5207L4.38389 21.9638ZM4.79661 20.5402L2.9016 19.9007L2.88776 19.9417L2.8757 19.9833L4.79661 20.5402ZM5.02923 20.3154L5.60459 22.2309L5.60592 22.2305L5.02923 20.3154ZM6.44747 19.8883L5.95086 17.951L5.91059 17.9613L5.87079 17.9733L6.44747 19.8883ZM6.79266 19.9782L8.21016 18.5673L8.19124 18.5483L8.17181 18.5298L6.79266 19.9782ZM8.00829 21.1995L6.59079 22.6105L6.62345 22.6433L6.65759 22.6745L8.00829 21.1995ZM27.666 4.93282C27.541 4.5609 27.3262 4.2258 27.0408 3.95712L24.2989 6.86953C24.1051 6.6871 23.9592 6.45951 23.8743 6.2068L27.666 4.93282ZM27.0408 3.95712C26.7554 3.68845 26.4083 3.49447 26.0303 3.39211L24.9846 7.253C24.7282 7.18355 24.4926 7.05193 24.2989 6.86953L27.0408 3.95712ZM25.983 3.3799C25.5839 3.28221 25.1661 3.29072 24.7713 3.40461L25.8799 7.24791C25.6036 7.32761 25.3113 7.33357 25.032 7.2652L25.983 3.3799ZM24.7713 3.40461C24.3765 3.5185 24.0181 3.73388 23.7321 4.02959L26.6075 6.81033C26.4072 7.01744 26.1563 7.1682 25.8799 7.24791L24.7713 3.40461ZM23.7548 4.00651L20.8508 6.91367L23.6808 9.74057L26.5848 6.83341L23.7548 4.00651ZM23.2501 6.5861L21.6067 5.65701L19.6381 9.13904L21.2815 10.0681L23.2501 6.5861ZM22.3607 6.40889L21.4227 4.7605L17.9461 6.73878L18.8841 8.38717L22.3607 6.40889ZM21.0957 7.16673L24.0073 4.26707L21.1846 1.43287L18.2731 4.33254L21.0957 7.16673ZM24.0097 4.26463C24.2957 3.97882 24.5039 3.62439 24.6141 3.23499L20.7653 2.14565C20.8413 1.87692 20.985 1.63241 21.1822 1.43531L24.0097 4.26463ZM24.6141 3.23499C24.7243 2.84557 24.7328 2.43437 24.6388 2.04069L20.7482 2.96992C20.6833 2.69821 20.6892 2.41441 20.7653 2.14565L24.6141 3.23499ZM24.6291 2.00174C24.5284 1.61481 24.3317 1.25978 24.0575 0.969378L21.1492 3.71561C20.9615 3.51688 20.8269 3.27385 20.7579 3.00887L24.6291 2.00174ZM24.0575 0.969378C23.7833 0.678994 23.4404 0.462607 23.0608 0.339938L21.831 4.14618C21.5714 4.06231 21.3368 3.91432 21.1492 3.71561L24.0575 0.969378ZM23.0537 0.33765C21.7994 -0.0624328 20.4588 -0.107909 19.1803 0.206226L20.1347 4.09069C20.697 3.95254 21.2866 3.97255 21.8381 4.14847L23.0537 0.33765ZM19.1803 0.206226C17.9018 0.520365 16.735 1.18194 15.8094 2.11802L18.6537 4.93049C19.0599 4.51964 19.5725 4.22883 20.1347 4.09069L19.1803 0.206226ZM15.8094 2.11802C14.8837 3.05413 14.2355 4.22819 13.9368 5.51023L17.8325 6.41769C17.9634 5.85612 18.2474 5.34132 18.6537 4.93049L15.8094 2.11802ZM13.9368 5.51023C13.6382 6.79227 13.7009 8.13187 14.1181 9.38043L17.9119 8.11299C17.7292 7.56599 17.7017 6.97925 17.8325 6.41769L13.9368 5.51023ZM14.603 7.33024L5.71087 16.1941L8.53478 19.027L17.427 10.1632L14.603 7.33024ZM7.52628 15.6517C6.51148 15.4427 5.46064 15.4878 4.46753 15.7832L5.60787 19.6172C5.96869 19.5099 6.35059 19.4935 6.71938 19.5694L7.52628 15.6517ZM4.46753 15.7832C3.47441 16.0786 2.56972 16.6151 1.83436 17.345L4.65223 20.1839C4.91878 19.9193 5.24706 19.7245 5.60787 19.6172L4.46753 15.7832ZM1.83014 17.3491C0.65867 18.5189 0 20.106 0 21.7615H4C4 21.1688 4.23578 20.5997 4.65644 20.1797L1.83014 17.3491ZM0 21.7615C0 23.417 0.65867 25.0041 1.83014 26.1738L4.65644 23.3433C4.23578 22.9233 4 22.3542 4 21.7615H0ZM1.83014 26.1738C3.00151 27.3435 4.58959 28 6.24487 28V24C5.64852 24 5.07721 23.7634 4.65644 23.3433L1.83014 26.1738ZM6.24487 28C7.90014 28 9.48822 27.3435 10.6596 26.1738L7.83329 23.3433C7.41253 23.7634 6.84121 24 6.24487 24V28ZM10.664 26.1694C11.3956 25.4343 11.933 24.529 12.2277 23.5347L8.3926 22.3981C8.28649 22.7561 8.09287 23.0825 7.82885 23.3477L10.664 26.1694ZM12.2277 23.5347C12.5224 22.5404 12.5651 21.4885 12.3518 20.4736L8.43728 21.2961C8.51405 21.6614 8.4987 22.0401 8.3926 22.3981L12.2277 23.5347ZM11.8107 22.2971L20.6803 13.4033L17.8481 10.5788L8.97841 19.4726L11.8107 22.2971ZM18.6365 13.89C19.8846 14.3025 21.2225 14.3621 22.5023 14.0621L21.5896 10.1677C21.0275 10.2994 20.4399 10.2732 19.8919 10.0921L18.6365 13.89ZM22.5023 14.0621C23.7821 13.7622 24.9542 13.1144 25.8885 12.19L23.0754 9.34636C22.6658 9.75155 22.1516 10.0359 21.5896 10.1677L22.5023 14.0621ZM25.8885 12.19C26.823 11.2656 27.4833 10.1007 27.7959 8.82416L23.9107 7.87265C23.7739 8.43109 23.485 8.9412 23.0754 9.34636L25.8885 12.19ZM27.7959 8.82416C28.1085 7.54758 28.0612 6.20948 27.6593 4.95814L23.8509 6.18148C24.0268 6.72895 24.0475 7.31424 23.9107 7.87265L27.7959 8.82416ZM25.7551 7.56981H25.7701V3.56981H25.7551V7.56981ZM6.18529 20.9786L5.76507 22.4247L9.60618 23.5409L10.0264 22.0948L6.18529 20.9786ZM5.75506 22.4604C5.83146 22.178 5.98058 21.921 6.1872 21.7147L9.0135 24.5452C9.30175 24.2574 9.50967 23.8989 9.61619 23.5052L5.75506 22.4604ZM6.1872 21.7147C6.39379 21.5084 6.65066 21.36 6.93206 21.2841L7.97395 25.146C8.36679 25.0401 8.72527 24.833 9.0135 24.5452L6.1872 21.7147ZM6.88561 21.2972L5.46736 21.7168L6.60215 25.5525L8.0204 25.1329L6.88561 21.2972ZM6.03476 21.6347H5.93721V25.6347H6.03476V21.6347ZM5.92558 21.6347C6.15982 21.6333 6.39183 21.6811 6.60662 21.7749L5.00537 25.4404C5.30289 25.5704 5.62429 25.6365 5.94883 25.6346L5.92558 21.6347ZM6.60662 21.7749C6.82145 21.8687 7.01436 22.0067 7.1728 22.1799L4.22136 24.8797C4.44069 25.1194 4.70781 25.3104 5.00537 25.4404L6.60662 21.7749ZM7.11023 22.1145L5.87959 20.8857L3.05328 23.7162L4.28393 24.945L7.11023 22.1145ZM5.86718 20.8734C6.0889 21.091 6.24576 21.3663 6.31976 21.6685L2.43449 22.6197C2.53765 23.0411 2.75637 23.425 3.06569 23.7285L5.86718 20.8734ZM6.31976 21.6685C6.39376 21.9708 6.38186 22.2877 6.28543 22.5836L2.48235 21.344C2.34791 21.7565 2.33133 22.1983 2.43449 22.6197L6.31976 21.6685ZM6.3048 22.5207L6.71751 21.0971L2.8757 19.9833L2.46299 21.4069L6.3048 22.5207ZM6.69162 21.1797C6.60736 21.4294 6.46452 21.655 6.27533 21.8378L3.4958 18.9613C3.22566 19.2224 3.02183 19.5444 2.9016 19.9007L6.69162 21.1797ZM6.27533 21.8378C6.08614 22.0206 5.8561 22.1553 5.60459 22.2309L4.45387 18.4C4.09449 18.5079 3.76593 18.7003 3.4958 18.9613L6.27533 21.8378ZM5.60592 22.2305L7.02416 21.8034L5.87079 17.9733L4.45254 18.4004L5.60592 22.2305ZM6.94408 21.8257C6.67619 21.8944 6.39524 21.8938 6.12758 21.8241L7.13585 17.9533C6.74742 17.8521 6.33966 17.8513 5.95086 17.951L6.94408 21.8257ZM6.12758 21.8241C5.85994 21.7544 5.61415 21.6177 5.4135 21.4267L8.17181 18.5298C7.88083 18.2527 7.52427 18.0544 7.13585 17.9533L6.12758 21.8241ZM5.37516 21.3892L6.59079 22.6105L9.42579 19.7886L8.21016 18.5673L5.37516 21.3892ZM6.65759 22.6745C6.4325 22.4684 6.26825 22.2041 6.18326 21.9103L10.0257 20.7986C9.90626 20.3859 9.67547 20.0144 9.359 19.7246L6.65759 22.6745ZM6.18326 21.9103C6.09827 21.6165 6.09591 21.305 6.17646 21.01L10.0352 22.0635C10.1484 21.649 10.1451 21.2113 10.0257 20.7986L6.18326 21.9103Z"
        fill="white" mask="url(#path-1-outside-1_33_349)" />
</svg>
