<svg version="1.0" xmlns="http://www.w3.org/2000/svg" width="626.000000pt" height="626.000000pt"
    viewBox="0 0 626.000000 626.000000" preserveAspectRatio="xMidYMid meet">

    <g transform="translate(0.000000,626.000000) scale(0.100000,-0.100000)" fill="#000000"
        stroke="none">
        <path d="M3722 4290 c-18 -11 -40 -35 -48 -54 l-16 -33 -452 -6 c-448 -5 -632
-17 -854 -52 -51 -8 -105 -23 -119 -32 -14 -10 -40 -48 -58 -87 -18 -39 -63
-134 -100 -211 -37 -77 -76 -159 -87 -183 l-21 -44 -21 21 c-16 17 -21 37 -24
95 -3 49 -9 76 -17 80 -7 2 -68 8 -134 12 -134 8 -142 5 -167 -55 -20 -47 -13
-52 121 -90 127 -37 145 -47 173 -95 19 -32 19 -35 4 -49 -9 -8 -46 -29 -82
-46 -126 -62 -207 -176 -217 -305 -3 -35 6 -155 21 -281 36 -305 45 -413 52
-615 3 -96 10 -185 16 -196 19 -40 47 -44 323 -44 l263 0 31 26 c29 24 31 30
31 94 0 52 -4 73 -19 91 -19 23 -25 24 -202 29 -165 4 -184 7 -187 23 -3 16
38 17 755 17 l758 0 130 -130 130 -130 183 0 183 0 26 -30 c100 -119 283 -50
270 101 -13 153 -209 192 -282 56 l-20 -37 -154 0 -154 0 -137 135 -137 135
-192 0 -192 0 3 133 3 132 108 3 c65 2 115 -2 128 -8 11 -6 75 -47 142 -91
l122 -79 109 0 109 0 137 135 137 135 150 0 149 0 30 -31 c59 -62 116 -74 189
-39 73 35 101 116 67 194 -26 58 -70 86 -136 86 -62 0 -110 -29 -137 -81 l-19
-39 -173 0 -172 0 -130 -130 -130 -130 -72 0 -73 0 -130 85 -129 84 -138 3
-138 3 -3 123 -3 122 244 0 244 0 11 -25 c18 -39 69 -65 127 -65 91 0 148 58
149 153 0 74 -55 134 -132 144 -55 7 -122 -25 -148 -72 l-19 -35 -237 0 -238
0 0 95 0 95 158 0 157 0 130 130 130 130 178 0 177 0 43 -44 c131 -137 328 14
238 182 -46 86 -208 81 -259 -8 l-17 -30 -199 0 -199 0 -137 -135 -137 -135
-184 0 c-211 0 -600 15 -769 30 -128 11 -361 48 -371 58 -4 4 33 99 82 212
125 287 141 321 164 336 22 14 255 46 460 64 66 5 299 10 518 10 l398 0 26
-30 c70 -84 179 -78 247 13 42 57 17 168 -47 207 -43 27 -121 26 -165 0z m135
-72 c39 -36 30 -99 -18 -124 -55 -28 -109 8 -109 72 0 63 80 96 127 52z m378
-553 c40 -39 32 -96 -16 -121 -79 -40 -150 56 -89 121 31 33 73 33 105 0z
m-2209 -535 c313 -117 324 -121 334 -140 9 -16 -10 -49 -67 -120 -2 -2 -81 -3
-176 -1 l-172 2 -83 82 c-45 45 -85 92 -88 103 -8 30 13 101 37 125 10 10 20
19 22 19 2 0 89 -32 193 -70z m1757 -12 c39 -46 5 -128 -53 -128 -41 0 -80 35
-80 71 0 17 5 39 11 50 22 42 89 46 122 7z m-725 -210 l-3 -73 -280 0 c-323 0
-313 -3 -251 91 l36 54 251 0 250 0 -3 -72z m1539 -30 c64 -60 -8 -164 -86
-124 -50 26 -58 92 -15 125 34 27 72 27 101 -1z m-1537 -308 l0 -90 -328 0
c-258 0 -332 3 -346 13 -27 20 -34 108 -12 142 l16 25 335 0 335 0 0 -90z
m1211 -419 c36 -36 37 -60 3 -100 -62 -74 -169 5 -123 90 23 45 80 49 120 10z" />
    </g>
</svg>
