<svg width="64" height="63" viewBox="0 0 64 63" fill="none" xmlns="http://www.w3.org/2000/svg">
    <defs>
        <clipPath id="clip0_357_3758">
            <rect x="1.50001" y="1" width="61" height="61" rx="30.5" fill="white" />
        </clipPath>
    </defs>
    <g clip-path="url(#clip0_357_3758)">
        <path
            d="M32.8472 36.5834C36.314 36.5834 39.6388 35.2444 42.0901 32.8612C44.5415 30.4779 45.9187 27.2455 45.9187 23.875C45.9187 20.5046 44.5415 17.2721 42.0901 14.8889C39.6388 12.5056 36.314 11.1667 32.8472 11.1667C29.3805 11.1667 26.0557 12.5056 23.6043 14.8889C21.153 17.2721 19.7758 20.5046 19.7758 23.875C19.7758 27.2455 21.153 30.4779 23.6043 32.8612C26.0557 35.2444 29.3805 36.5834 32.8472 36.5834ZM28.1803 41.349C18.1215 41.349 9.97223 49.2718 9.97223 59.0513C9.97223 60.6796 11.3304 62 13.0052 62H52.6893C54.364 62 55.7222 60.6796 55.7222 59.0513C55.7222 49.2718 47.573 41.349 37.5141 41.349H28.1803Z"
            fill="#366AD2" />
    </g>
    <rect x="1.00001" y="0.5" width="62" height="62" rx="31" stroke="#366AD2" />

</svg>
