<svg width="29" height="26" viewBox="0 0 29 26" fill="none" xmlns="http://www.w3.org/2000/svg">
    <path
        d="M4.70809 4.82837L4.70797 4.8287L3.12432 9.37605C1.85899 10.0834 1 11.4415 1 13V20.0714V22.4286C1 23.8447 2.14059 25 3.5625 25H5.125C6.54691 25 7.6875 23.8447 7.6875 22.4286V21.0714H21.3125V22.4286C21.3125 23.8447 22.4531 25 23.875 25H25.4375C26.8594 25 28 23.8447 28 22.4286V20.0714V13C28 11.4415 27.141 10.0834 25.8757 9.37605L24.292 4.8287L24.2919 4.82837C23.494 2.53986 21.3454 1 18.9238 1H10.0762C7.65461 1 5.506 2.53986 4.70809 4.82837ZM20.2662 8.85714H8.73381L9.54555 6.52373C9.5456 6.52358 9.54565 6.52343 9.54571 6.52328C9.62654 6.29265 9.84114 6.14286 10.0762 6.14286H18.9238C19.159 6.14286 19.3737 6.29285 19.4544 6.52373L20.2662 8.85714ZM7.08323 14.1653C7.18936 14.2721 7.25 14.418 7.25 14.5714C7.25 14.7248 7.18936 14.8708 7.08324 14.9775C6.9773 15.084 6.83484 15.1429 6.6875 15.1429C6.54016 15.1429 6.3977 15.084 6.29176 14.9775C6.18564 14.8708 6.125 14.7248 6.125 14.5714C6.125 14.418 6.18564 14.2721 6.29176 14.1653C6.3977 14.0588 6.54016 14 6.6875 14C6.83484 14 6.9773 14.0588 7.08323 14.1653ZM22.7082 14.9775C22.6023 15.084 22.4598 15.1429 22.3125 15.1429C22.1652 15.1429 22.0227 15.084 21.9168 14.9775L21.2076 15.6826L21.9168 14.9775C21.8106 14.8708 21.75 14.7248 21.75 14.5714C21.75 14.418 21.8106 14.2721 21.9168 14.1654L21.2076 13.4603L21.9168 14.1653C22.0227 14.0588 22.1652 14 22.3125 14C22.4598 14 22.6023 14.0588 22.7082 14.1653C22.8144 14.2721 22.875 14.418 22.875 14.5714C22.875 14.7248 22.8144 14.8708 22.7082 14.9775Z"
        fill="#2F80ED" stroke="white" stroke-width="2" />
</svg>
