<svg width="26" height="26" viewBox="0 0 26 26" fill="none" xmlns="http://www.w3.org/2000/svg">
    <defs>
        <clipPath id="clip0_37_570">
            <rect width="16.7143" height="16.7143" fill="white"
                transform="translate(4.64285 4.6427)" />
        </clipPath>
        <clipPath id="clip1_37_570">
            <rect width="6.26134" height="8.16279" fill="white"
                transform="translate(9.89038 8.91858)" />
        </clipPath>
    </defs>
    <rect width="26" height="26" rx="4.95238" fill="#B3D3FF" />
    <g clip-path="url(#clip0_37_570)">
        <path
            d="M21.3572 12.4776C21.3572 16.2285 17.616 19.2677 13 19.2677C11.7889 19.2677 10.6398 19.0588 9.60167 18.6834C9.21319 18.9674 8.57987 19.3559 7.82904 19.6823C7.04555 20.0218 6.10211 20.3124 5.1652 20.3124C4.953 20.3124 4.76366 20.1851 4.68205 19.9892C4.60044 19.7933 4.64614 19.5713 4.79304 19.4212L4.80284 19.4114C4.81263 19.4016 4.82569 19.3885 4.84527 19.3657C4.88118 19.3265 4.93668 19.2645 5.00524 19.1796C5.13908 19.0164 5.31863 18.7748 5.50144 18.4745C5.82789 17.9326 6.13802 17.2209 6.20005 16.4211C5.22069 15.3112 4.64287 13.9499 4.64287 12.4776C4.64287 8.72664 8.384 5.68738 13 5.68738C17.616 5.68738 21.3572 8.72664 21.3572 12.4776Z"
            fill="#2F80ED" />
        <g clip-path="url(#clip1_37_570)">
            <path
                d="M11.4558 11.2508C11.4558 10.6076 12.0173 10.0847 12.708 10.0847H13.3342C14.0249 10.0847 14.5864 10.6076 14.5864 11.2508V11.3164C14.5864 11.7136 14.3692 12.0835 14.0112 12.2967L13.1855 12.7904C12.6924 13.0856 12.395 13.594 12.395 14.1388V14.1661C12.395 14.4886 12.6748 14.7491 13.0211 14.7491C13.3674 14.7491 13.6472 14.4886 13.6472 14.1661V14.1406C13.6472 13.9912 13.7294 13.8527 13.8625 13.7725L14.6882 13.2787C15.4043 12.8487 15.8387 12.1108 15.8387 11.3164V11.2508C15.8387 9.96261 14.7175 8.91858 13.3342 8.91858H12.708C11.3247 8.91858 10.2035 9.96261 10.2035 11.2508C10.2035 11.5733 10.4833 11.8339 10.8296 11.8339C11.176 11.8339 11.4558 11.5733 11.4558 11.2508ZM13.0211 17.0814C13.2287 17.0814 13.4277 17.0046 13.5745 16.8679C13.7213 16.7312 13.8038 16.5458 13.8038 16.3526C13.8038 16.1593 13.7213 15.9739 13.5745 15.8372C13.4277 15.7005 13.2287 15.6237 13.0211 15.6237C12.8135 15.6237 12.6144 15.7005 12.4677 15.8372C12.3209 15.9739 12.2384 16.1593 12.2384 16.3526C12.2384 16.5458 12.3209 16.7312 12.4677 16.8679C12.6144 17.0046 12.8135 17.0814 13.0211 17.0814Z"
                fill="white" />
        </g>
    </g>

</svg>
