<svg width="26" height="26" viewBox="0 0 26 26" fill="none" xmlns="http://www.w3.org/2000/svg">
    <rect width="26" height="26" rx="4.95238" fill="#B3D3FF" />
    <path
        d="M16.0178 12.9999C16.0178 13.6441 15.9801 14.265 15.9141 14.857H10.0859C10.0167 14.265 9.98213 13.6441 9.98213 12.9999C9.98213 12.3557 10.0198 11.7347 10.0859 11.1427H15.9141C15.9833 11.7347 16.0178 12.3557 16.0178 12.9999ZM16.9232 11.1427H20.793C20.9596 11.7376 21.0476 12.3586 21.0476 12.9999C21.0476 13.6412 20.9596 14.2621 20.793 14.857H16.9232C16.9892 14.2592 17.0238 13.6383 17.0238 12.9999C17.0238 12.3615 16.9892 11.7405 16.9232 11.1427ZM20.4629 10.2141H16.7943C16.48 8.35991 15.8575 6.80745 15.0559 5.81504C17.5173 6.41571 19.5198 8.06392 20.4597 10.2141H20.4629ZM15.7758 10.2141H10.2242C10.4159 9.1579 10.7114 8.22352 11.073 7.46616C11.403 6.78133 11.7708 6.28513 12.1261 5.97174C12.4781 5.66415 12.7705 5.57129 13 5.57129C13.2295 5.57129 13.5218 5.66415 13.8739 5.97174C14.2291 6.28513 14.5969 6.78133 14.927 7.46616C15.2917 8.22062 15.584 9.15499 15.7758 10.2141ZM9.20566 10.2141H5.53707C6.48015 8.06392 8.47948 6.41571 10.9441 5.81504C10.1424 6.80745 9.52002 8.35991 9.20566 10.2141ZM5.20699 11.1427H9.07677C9.01075 11.7405 8.97617 12.3615 8.97617 12.9999C8.97617 13.6383 9.01075 14.2592 9.07677 14.857H5.20699C5.04038 14.2621 4.95236 13.6412 4.95236 12.9999C4.95236 12.3586 5.04038 11.7376 5.20699 11.1427ZM11.073 18.5307C10.7083 17.7762 10.4159 16.8418 10.2242 15.7856H15.7758C15.584 16.8418 15.2885 17.7762 14.927 18.5307C14.5969 19.2155 14.2291 19.7117 13.8739 20.0251C13.5218 20.3356 13.2295 20.4284 13 20.4284C12.7705 20.4284 12.4781 20.3356 12.1261 20.028C11.7708 19.7146 11.403 19.2184 11.073 18.5336V18.5307ZM9.20566 15.7856C9.52002 17.6398 10.1424 19.1923 10.9441 20.1847C8.47948 19.584 6.48015 17.9358 5.53707 15.7856H9.20566ZM20.4629 15.7856C19.5198 17.9358 17.5205 19.584 15.059 20.1847C15.8607 19.1923 16.4799 17.6398 16.7975 15.7856H20.4629Z"
        fill="#2F80ED" />
</svg>
