<svg width="26" height="26" viewBox="0 0 26 26" fill="none" xmlns="http://www.w3.org/2000/svg">
    <rect width="26" height="26" rx="4" fill="#EF5454" />
    <path
        d="M18.2986 13.5549C18.5671 13.248 18.5671 12.7496 18.2986 12.4426L15.5484 9.29978C15.2799 8.99286 14.8437 8.99286 14.5751 9.29978C14.3066 9.6067 14.3066 10.1051 14.5751 10.4121L16.1522 12.2143H11.6252C11.2449 12.2143 10.9377 12.5654 10.9377 13C10.9377 13.4346 11.2449 13.7857 11.6252 13.7857H16.1522L14.5751 15.5879C14.3066 15.8949 14.3066 16.3933 14.5751 16.7002C14.8437 17.0071 15.2799 17.0071 15.5484 16.7002L18.2986 13.5574V13.5549ZM10.9377 9.07143C11.318 9.07143 11.6252 8.72031 11.6252 8.28571C11.6252 7.85112 11.318 7.5 10.9377 7.5H9.5626C8.42387 7.5 7.5 8.5558 7.5 9.85714V16.1429C7.5 17.4442 8.42387 18.5 9.5626 18.5H10.9377C11.318 18.5 11.6252 18.1489 11.6252 17.7143C11.6252 17.2797 11.318 16.9286 10.9377 16.9286H9.5626C9.18231 16.9286 8.87507 16.5775 8.87507 16.1429V9.85714C8.87507 9.42254 9.18231 9.07143 9.5626 9.07143H10.9377Z"
        fill="#FCFCFC" />
</svg>
