<svg width="26" height="26" viewBox="0 0 26 26" fill="none" xmlns="http://www.w3.org/2000/svg">
    <rect width="26" height="26" rx="4" fill="white" fill-opacity="0.6" />
    <path
        d="M13 13C14.0698 13 15.0957 12.5786 15.8522 11.8284C16.6086 11.0783 17.0336 10.0609 17.0336 9C17.0336 7.93913 16.6086 6.92172 15.8522 6.17157C15.0957 5.42143 14.0698 5 13 5C11.9302 5 10.9043 5.42143 10.1478 6.17157C9.39136 6.92172 8.96639 7.93913 8.96639 9C8.96639 10.0609 9.39136 11.0783 10.1478 11.8284C10.9043 12.5786 11.9302 13 13 13ZM11.5599 14.5C8.45588 14.5 5.94118 16.9937 5.94118 20.0719C5.94118 20.5844 6.3603 21 6.8771 21H19.1229C19.6397 21 20.0588 20.5844 20.0588 20.0719C20.0588 16.9937 17.5441 14.5 14.4401 14.5H11.5599Z"
        fill="#366AD2" />
</svg>
