<svg width="26" height="26" viewBox="0 0 26 26" fill="none" xmlns="http://www.w3.org/2000/svg">
    <rect width="26" height="26" rx="4" fill="white" fill-opacity="0.6" />
    <path
        d="M10.8571 9.9375V11.25H15.1429V9.9375C15.1429 8.72891 14.1839 7.75 13 7.75C11.8161 7.75 10.8571 8.72891 10.8571 9.9375ZM9.14286 11.25V9.9375C9.14286 7.76367 10.8705 6 13 6C15.1295 6 16.8571 7.76367 16.8571 9.9375V11.25H17.2857C18.2312 11.25 19 12.0348 19 13V18.25C19 19.2152 18.2312 20 17.2857 20H8.71429C7.76875 20 7 19.2152 7 18.25V13C7 12.0348 7.76875 11.25 8.71429 11.25H9.14286Z"
        fill="#366AD2" />
</svg>
