<svg width="26" height="26" viewBox="0 0 26 26" fill="none" xmlns="http://www.w3.org/2000/svg">
    <defs>
        <clipPath id="clip0_41_703">
            <rect width="15.6" height="17.817" fill="white"
                transform="translate(5.20001 5.68323)" />
        </clipPath>
    </defs>
    <rect width="26" height="26" rx="4.95238" fill="#B2D3FF" />
    <g clip-path="url(#clip0_41_703)">
        <path
            d="M13 14.5917C14.1821 14.5917 15.3158 14.1224 16.1517 13.2871C16.9876 12.4518 17.4572 11.3188 17.4572 10.1375C17.4572 8.95614 16.9876 7.82318 16.1517 6.98785C15.3158 6.15251 14.1821 5.68323 13 5.68323C11.8179 5.68323 10.6842 6.15251 9.84833 6.98785C9.01245 7.82318 8.54286 8.95614 8.54286 10.1375C8.54286 11.3188 9.01245 12.4518 9.84833 13.2871C10.6842 14.1224 11.8179 14.5917 13 14.5917ZM11.4087 16.2621C7.97876 16.2621 5.20001 17.4586 5.20001 20.8862C5.20001 21.457 5.66314 21.9198 6.23421 21.9198H19.7658C20.3369 21.9198 20.8 21.457 20.8 20.8862C20.8 17.4586 18.0213 16.2621 14.5913 16.2621H11.4087Z"
            fill="#2F80ED" />
    </g>
    <path
        d="M17.4334 15.1523H17.4336C18.8205 15.1523 20.02 14.1948 20.02 12.9261V9.70633C20.02 6.36431 16.835 3.72633 13 3.72633C9.16493 3.72633 5.97996 6.36431 5.97996 9.70633V10.6001C5.97996 11.0799 6.42132 11.3963 6.87371 11.3963C7.3261 11.3963 7.76746 11.0799 7.76746 10.6001V9.70633C7.76746 7.32165 10.0671 5.31883 13 5.31883C15.9329 5.31883 18.2325 7.32165 18.2325 9.70633V12.9261C18.2325 13.2372 17.9187 13.5597 17.4364 13.5598C17.4363 13.5598 17.4363 13.5598 17.4362 13.5598L14.6488 13.5577C14.3654 13.2263 13.9158 13.0213 13.4225 13.0213H12.5775C11.7765 13.0213 11.05 13.5791 11.05 14.3538C11.05 15.1286 11.7765 15.6863 12.5775 15.6863H13.4225C13.9157 15.6863 14.3653 15.4814 14.6486 15.1502L17.4334 15.1523Z"
        fill="#2F80ED" stroke="#B3D3FF" stroke-width="0.52" />

</svg>
