<svg width="26" height="26" viewBox="0 0 26 26" fill="none" xmlns="http://www.w3.org/2000/svg">
    <rect width="26" height="26" rx="4.95238" fill="#B3D3FF" />
    <path
        d="M14.5938 6.08752C14.2344 6.24689 14 6.60627 14 7.00002V9.00002H10.5C7.4625 9.00002 5 11.4625 5 14.5C5 18.0406 7.54688 19.6219 8.13125 19.9406C8.20937 19.9844 8.29688 20 8.38438 20C8.725 20 9 19.7219 9 19.3844C9 19.15 8.86562 18.9344 8.69375 18.775C8.4 18.4969 8 17.95 8 17C8 15.3438 9.34375 14 11 14H14V16C14 16.3938 14.2312 16.7531 14.5938 16.9125C14.9563 17.0719 15.375 17.0063 15.6687 16.7438L20.6687 12.2438C20.8781 12.0531 21 11.7844 21 11.5C21 11.2156 20.8812 10.9469 20.6687 10.7563L15.6687 6.25627C15.375 5.99064 14.9531 5.92502 14.5938 6.08752Z"
        fill="#2F80ED" />
</svg>
