<svg width="26" height="26" viewBox="0 0 26 26" fill="none" xmlns="http://www.w3.org/2000/svg">
    <rect width="26" height="26" rx="4.95238" fill="#2F80ED" />
    <path
        d="M16.316 4.9914C16.4732 5.0574 16.5863 5.19884 16.6177 5.36543L17.2432 8.75689L20.6347 9.37923C20.8013 9.41066 20.9427 9.52381 21.0087 9.68097C21.0747 9.83813 21.0559 10.0173 20.9584 10.1587L19.0003 13.0001L20.9584 15.8384C21.0559 15.9798 21.0747 16.159 21.0087 16.3162C20.9427 16.4733 20.8013 16.5865 20.6347 16.6179L17.2432 17.2434L16.6177 20.6348C16.5863 20.8014 16.4732 20.9429 16.316 21.0089C16.1588 21.0749 15.9797 21.056 15.8382 20.9586L13 19.0004L10.1617 20.9586C10.0203 21.056 9.84112 21.0749 9.68396 21.0089C9.5268 20.9429 9.41365 20.8014 9.38222 20.6348L8.75673 17.2434L5.36528 16.6179C5.19869 16.5865 5.05725 16.4733 4.99124 16.3162C4.92524 16.159 4.9441 15.9798 5.04153 15.8384L6.99971 13.0001L5.04153 10.1619C4.9441 10.0204 4.92524 9.84127 4.99124 9.68411C5.05725 9.52696 5.19869 9.4138 5.36528 9.38237L8.75673 8.75689L9.38222 5.36543C9.41365 5.19884 9.5268 5.0574 9.68396 4.9914C9.84112 4.92539 10.0203 4.94425 10.1617 5.04169L13 6.99987L15.8382 5.04169C15.9797 4.94425 16.1588 4.92539 16.316 4.9914ZM9.98256 13.0001C9.98256 12.1999 10.3005 11.4324 10.8663 10.8665C11.4322 10.3006 12.1997 9.98271 13 9.98271C13.8003 9.98271 14.5677 10.3006 15.1336 10.8665C15.6995 11.4324 16.0174 12.1999 16.0174 13.0001C16.0174 13.8004 15.6995 14.5679 15.1336 15.1338C14.5677 15.6997 13.8003 16.0176 13 16.0176C12.1997 16.0176 11.4322 15.6997 10.8663 15.1338C10.3005 14.5679 9.98256 13.8004 9.98256 13.0001ZM17.0232 13.0001C17.0232 11.9331 16.5993 10.9098 15.8448 10.1553C15.0903 9.40078 14.067 8.97691 13 8.97691C11.933 8.97691 10.9096 9.40078 10.1551 10.1553C9.40063 10.9098 8.97675 11.9331 8.97675 13.0001C8.97675 14.0672 9.40063 15.0905 10.1551 15.845C10.9096 16.5995 11.933 17.0234 13 17.0234C14.067 17.0234 15.0903 16.5995 15.8448 15.845C16.5993 15.0905 17.0232 14.0672 17.0232 13.0001Z"
        fill="white" />
</svg>
